<svg width="695" height="832" viewBox="0 0 695 832" fill="none" xmlns="http://www.w3.org/2000/svg">
<path d="M0 0H641C652.046 0 661 8.95431 661 20V812C661 823.046 652.046 832 641 832H0V0Z" fill="#1F2937"/>
<rect x="-108" y="251" width="199" height="190" rx="95" fill="#EC4899"/>
<path d="M144.295 279.841C144.114 278.008 143.333 276.583 141.955 275.568C140.576 274.553 138.705 274.045 136.341 274.045C134.735 274.045 133.379 274.273 132.273 274.727C131.167 275.167 130.318 275.78 129.727 276.568C129.152 277.356 128.864 278.25 128.864 279.25C128.833 280.083 129.008 280.811 129.386 281.432C129.78 282.053 130.318 282.591 131 283.045C131.682 283.485 132.47 283.871 133.364 284.205C134.258 284.523 135.212 284.795 136.227 285.023L140.409 286.023C142.439 286.477 144.303 287.083 146 287.841C147.697 288.598 149.167 289.53 150.409 290.636C151.652 291.742 152.614 293.045 153.295 294.545C153.992 296.045 154.348 297.765 154.364 299.705C154.348 302.553 153.621 305.023 152.182 307.114C150.758 309.189 148.697 310.803 146 311.955C143.318 313.091 140.083 313.659 136.295 313.659C132.538 313.659 129.265 313.083 126.477 311.932C123.705 310.78 121.538 309.076 119.977 306.818C118.432 304.545 117.621 301.735 117.545 298.386H127.068C127.174 299.947 127.621 301.25 128.409 302.295C129.212 303.326 130.28 304.106 131.614 304.636C132.962 305.152 134.485 305.409 136.182 305.409C137.848 305.409 139.295 305.167 140.523 304.682C141.765 304.197 142.727 303.523 143.409 302.659C144.091 301.795 144.432 300.803 144.432 299.682C144.432 298.636 144.121 297.758 143.5 297.045C142.894 296.333 142 295.727 140.818 295.227C139.652 294.727 138.22 294.273 136.523 293.864L131.455 292.591C127.53 291.636 124.432 290.144 122.159 288.114C119.886 286.083 118.758 283.348 118.773 279.909C118.758 277.091 119.508 274.629 121.023 272.523C122.553 270.417 124.652 268.773 127.318 267.591C129.985 266.409 133.015 265.818 136.409 265.818C139.864 265.818 142.879 266.409 145.455 267.591C148.045 268.773 150.061 270.417 151.5 272.523C152.939 274.629 153.682 277.068 153.727 279.841H144.295ZM159.21 274.568V266.455H197.438V274.568H183.188V313H173.46V274.568H159.21ZM203.733 313V266.455H222.097C225.612 266.455 228.612 267.083 231.097 268.341C233.597 269.583 235.498 271.348 236.801 273.636C238.119 275.909 238.778 278.583 238.778 281.659C238.778 284.75 238.112 287.409 236.778 289.636C235.445 291.848 233.513 293.545 230.983 294.727C228.468 295.909 225.422 296.5 221.847 296.5H209.551V288.591H220.256C222.134 288.591 223.695 288.333 224.938 287.818C226.18 287.303 227.104 286.53 227.71 285.5C228.331 284.47 228.642 283.189 228.642 281.659C228.642 280.114 228.331 278.811 227.71 277.75C227.104 276.689 226.172 275.886 224.915 275.341C223.672 274.78 222.104 274.5 220.21 274.5H213.574V313H203.733ZM228.869 291.818L240.438 313H229.574L218.256 291.818H228.869ZM245.733 313V266.455H277.097V274.568H255.574V285.659H275.483V293.773H255.574V304.886H277.188V313H245.733ZM292.943 313H282.398L298.466 266.455H311.148L327.193 313H316.648L304.989 277.091H304.625L292.943 313ZM292.284 294.705H317.193V302.386H292.284V294.705ZM332.795 313V266.455H342.636V286.977H343.25L360 266.455H371.795L354.523 287.295L372 313H360.227L347.477 293.864L342.636 299.773V313H332.795Z" fill="#EC4899"/>
<path d="M397.909 281.5C397.591 280.394 397.144 279.417 396.568 278.568C395.992 277.705 395.288 276.977 394.455 276.386C393.636 275.78 392.697 275.318 391.636 275C390.591 274.682 389.432 274.523 388.159 274.523C385.78 274.523 383.689 275.114 381.886 276.295C380.098 277.477 378.705 279.197 377.705 281.455C376.705 283.697 376.205 286.439 376.205 289.682C376.205 292.924 376.697 295.682 377.682 297.955C378.667 300.227 380.061 301.962 381.864 303.159C383.667 304.341 385.795 304.932 388.25 304.932C390.477 304.932 392.379 304.538 393.955 303.75C395.545 302.947 396.758 301.818 397.591 300.364C398.439 298.909 398.864 297.189 398.864 295.205L400.864 295.5H388.864V288.091H408.341V293.955C408.341 298.045 407.477 301.561 405.75 304.5C404.023 307.424 401.644 309.682 398.614 311.273C395.583 312.848 392.114 313.636 388.205 313.636C383.841 313.636 380.008 312.674 376.705 310.75C373.402 308.811 370.826 306.061 368.977 302.5C367.144 298.924 366.227 294.682 366.227 289.773C366.227 286 366.773 282.636 367.864 279.682C368.97 276.712 370.515 274.197 372.5 272.136C374.485 270.076 376.795 268.508 379.432 267.432C382.068 266.356 384.924 265.818 388 265.818C390.636 265.818 393.091 266.205 395.364 266.977C397.636 267.735 399.652 268.811 401.409 270.205C403.182 271.598 404.629 273.258 405.75 275.182C406.871 277.091 407.591 279.197 407.909 281.5H397.909ZM415.733 313V266.455H434.097C437.612 266.455 440.612 267.083 443.097 268.341C445.597 269.583 447.498 271.348 448.801 273.636C450.119 275.909 450.778 278.583 450.778 281.659C450.778 284.75 450.112 287.409 448.778 289.636C447.445 291.848 445.513 293.545 442.983 294.727C440.468 295.909 437.422 296.5 433.847 296.5H421.551V288.591H432.256C434.134 288.591 435.695 288.333 436.938 287.818C438.18 287.303 439.104 286.53 439.71 285.5C440.331 284.47 440.642 283.189 440.642 281.659C440.642 280.114 440.331 278.811 439.71 277.75C439.104 276.689 438.172 275.886 436.915 275.341C435.672 274.78 434.104 274.5 432.21 274.5H425.574V313H415.733ZM440.869 291.818L452.438 313H441.574L430.256 291.818H440.869ZM465.756 313H455.21L471.278 266.455H483.96L500.006 313H489.46L477.801 277.091H477.438L465.756 313ZM465.097 294.705H490.006V302.386H465.097V294.705ZM505.608 313V266.455H523.972C527.502 266.455 530.509 267.129 532.994 268.477C535.479 269.811 537.373 271.667 538.676 274.045C539.994 276.409 540.653 279.136 540.653 282.227C540.653 285.318 539.987 288.045 538.653 290.409C537.32 292.773 535.388 294.614 532.858 295.932C530.343 297.25 527.297 297.909 523.722 297.909H512.017V290.023H522.131C524.025 290.023 525.585 289.697 526.812 289.045C528.055 288.379 528.979 287.462 529.585 286.295C530.206 285.114 530.517 283.758 530.517 282.227C530.517 280.682 530.206 279.333 529.585 278.182C528.979 277.015 528.055 276.114 526.812 275.477C525.57 274.826 523.994 274.5 522.085 274.5H515.449V313H505.608ZM547.045 313V266.455H556.886V285.659H576.864V266.455H586.682V313H576.864V293.773H556.886V313H547.045Z" fill="white"/>
<rect x="-97" y="500" width="485" height="485" rx="242.5" fill="#EC4899"/>
<rect width="84.5287" height="85.6023" rx="42.2644" transform="matrix(0.999854 0.017099 0.017099 -0.999854 501.54 140.59)" fill="#EC4899"/>
<rect width="202.732" height="205.307" rx="100" transform="matrix(0.999854 0.017099 0.017099 -0.999854 393 578.277)" fill="#EC4899"/>
</svg>
